# xmcd
#
# Track frame offsets: 
#        150
#        12465
#        26812
#        41819
#        53670
#        67847
#        82187
#        94461
#        108769
#        122203
#        134005
#        145909
#        159401
#        172606
#        186043
#        200120
#        211857
#        225856
#        238268
#        250301
#
# Disc length: 3470 seconds
#
# Revision: 2
# Processed by: cddbd v1.5.2PL0 Copyright (c) Steve Scherf et al.
# Submitted via: ExactAudioCopyFreeDBPlugin 1.0
#
DISCID=190d8c14
DTITLE=Louis Armstrong - Louis Armstrong Box - CD10 Alexander's Ragtim
DTITLE=e Band
DYEAR=2000
DGENRE=Jazz
TTITLE0=Yours And Mine (NYC 2.7.1937)
TTITLE1=Red Cap (NYC 2.7.1937)
TTITLE2=She's The Daughter of a Planter from Havana (NYC 7.7.1937)
TTITLE3=Alexander's Ragtime Band (NYC 7.7.1937)
TTITLE4=Cuban Pete (NYC 7.7.1937)
TTITLE5=I've Got a Heart Full of Rhythm (NYC 7.7.1937)
TTITLE6=Sun Showers (NYC 7.7.1937)
TTITLE7=Once in a While (LA 15.11.1937)
TTITLE8=On the Sunny Side of the Street (LA 12.1.1938)
TTITLE9=Satchel Mouth Swing (LA 12.1.1938)
TTITLE10=Jubilee (LA 12.1.1938)
TTITLE11=Struttin' with Some Barbecue (LA 12.1.1938)
TTITLE12=The Trumpet Player's Lament (LA 12.1.1938)
TTITLE13=I Bouble Dare You (LA 12.1.1938)
TTITLE14=True Confession (LA 12.1.1938)
TTITLE15=Let That Be a Lesson to You (LA 12.1.1938)
TTITLE16=Sweet as a Song (LA 12.1.1938)
TTITLE17=So Little Time (NYC 13.5.1938)
TTITLE18=Mexican Swing (NYC 13.5.1938)
TTITLE19=As Long as You Live (NYC 13.5.1938)
EXTD=
EXTT0=
EXTT1=
EXTT2=
EXTT3=
EXTT4=
EXTT5=
EXTT6=
EXTT7=
EXTT8=
EXTT9=
EXTT10=
EXTT11=
EXTT12=
EXTT13=
EXTT14=
EXTT15=
EXTT16=
EXTT17=
EXTT18=
EXTT19=
PLAYORDER=
